<svg width="120" height="120" viewBox="0 0 120 120" fill="none" xmlns="http://www.w3.org/2000/svg">
<rect width="120" height="120" rx="15" fill="#4563EE"/>
<path d="M32.78 27.725V31.91H19.505V41.135H29.855V45.32H19.505V59H14.375V27.725H32.78ZM40.1442 30.92C39.2142 30.92 38.4342 30.605 37.8042 29.975C37.1742 29.345 36.8592 28.565 36.8592 27.635C36.8592 26.705 37.1742 25.925 37.8042 25.295C38.4342 24.665 39.2142 24.35 40.1442 24.35C41.0442 24.35 41.8092 24.665 42.4392 25.295C43.0692 25.925 43.3842 26.705 43.3842 27.635C43.3842 28.565 43.0692 29.345 42.4392 29.975C41.8092 30.605 41.0442 30.92 40.1442 30.92ZM42.6642 34.205V59H37.5342V34.205H42.6642ZM61.9094 33.8C63.8594 33.8 65.5994 34.205 67.1294 35.015C68.6894 35.825 69.9044 37.025 70.7744 38.615C71.6444 40.205 72.0794 42.125 72.0794 44.375V59H66.9944V45.14C66.9944 42.92 66.4394 41.225 65.3294 40.055C64.2194 38.855 62.7044 38.255 60.7844 38.255C58.8644 38.255 57.3344 38.855 56.1944 40.055C55.0844 41.225 54.5294 42.92 54.5294 45.14V59H49.3994V34.205H54.5294V37.04C55.3694 36.02 56.4344 35.225 57.7244 34.655C59.0444 34.085 60.4394 33.8 61.9094 33.8ZM33.23 92.61H20.135L17.885 99H12.53L23.735 67.68H29.675L40.88 99H35.48L33.23 92.61ZM31.79 88.425L26.705 73.89L21.575 88.425H31.79ZM50.882 77.85C51.752 76.71 52.937 75.75 54.437 74.97C55.937 74.19 57.632 73.8 59.522 73.8C61.682 73.8 63.647 74.34 65.417 75.42C67.217 76.47 68.627 77.955 69.647 79.875C70.667 81.795 71.177 84 71.177 86.49C71.177 88.98 70.667 91.215 69.647 93.195C68.627 95.145 67.217 96.675 65.417 97.785C63.647 98.865 61.682 99.405 59.522 99.405C57.632 99.405 55.952 99.03 54.482 98.28C53.012 97.5 51.812 96.54 50.882 95.4V110.79H45.752V74.205H50.882V77.85ZM65.957 86.49C65.957 84.78 65.597 83.31 64.877 82.08C64.187 80.82 63.257 79.875 62.087 79.245C60.947 78.585 59.717 78.255 58.397 78.255C57.107 78.255 55.877 78.585 54.707 79.245C53.567 79.905 52.637 80.865 51.917 82.125C51.227 83.385 50.882 84.87 50.882 86.58C50.882 88.29 51.227 89.79 51.917 91.08C52.637 92.34 53.567 93.3 54.707 93.96C55.877 94.62 57.107 94.95 58.397 94.95C59.717 94.95 60.947 94.62 62.087 93.96C63.257 93.27 64.187 92.28 64.877 90.99C65.597 89.7 65.957 88.2 65.957 86.49ZM81.38 77.85C82.25 76.71 83.435 75.75 84.935 74.97C86.435 74.19 88.13 73.8 90.02 73.8C92.18 73.8 94.145 74.34 95.915 75.42C97.715 76.47 99.125 77.955 100.145 79.875C101.165 81.795 101.675 84 101.675 86.49C101.675 88.98 101.165 91.215 100.145 93.195C99.125 95.145 97.715 96.675 95.915 97.785C94.145 98.865 92.18 99.405 90.02 99.405C88.13 99.405 86.45 99.03 84.98 98.28C83.51 97.5 82.31 96.54 81.38 95.4V110.79H76.25V74.205H81.38V77.85ZM96.455 86.49C96.455 84.78 96.095 83.31 95.375 82.08C94.685 80.82 93.755 79.875 92.585 79.245C91.445 78.585 90.215 78.255 88.895 78.255C87.605 78.255 86.375 78.585 85.205 79.245C84.065 79.905 83.135 80.865 82.415 82.125C81.725 83.385 81.38 84.87 81.38 86.58C81.38 88.29 81.725 89.79 82.415 91.08C83.135 92.34 84.065 93.3 85.205 93.96C86.375 94.62 87.605 94.95 88.895 94.95C90.215 94.95 91.445 94.62 92.585 93.96C93.755 93.27 94.685 92.28 95.375 90.99C96.095 89.7 96.455 88.2 96.455 86.49Z" fill="white"/>
</svg>
