<svg width="16" height="16" viewBox="0 0 16 16" fill="none" xmlns="http://www.w3.org/2000/svg">
<rect width="16" height="16" rx="2" fill="#4563EE"/>
<path d="M4.904 3.83V4.388H3.134V5.618H4.514V6.176H3.134V8H2.45V3.83H4.904ZM5.88589 4.256C5.76189 4.256 5.65789 4.214 5.57389 4.13C5.48989 4.046 5.44789 3.942 5.44789 3.818C5.44789 3.694 5.48989 3.59 5.57389 3.506C5.65789 3.422 5.76189 3.38 5.88589 3.38C6.00589 3.38 6.10789 3.422 6.19189 3.506C6.27589 3.59 6.31789 3.694 6.31789 3.818C6.31789 3.942 6.27589 4.046 6.19189 4.13C6.10789 4.214 6.00589 4.256 5.88589 4.256ZM6.22189 4.694V8H5.53789V4.694H6.22189ZM8.78792 4.64C9.04792 4.64 9.27992 4.694 9.48392 4.802C9.69192 4.91 9.85392 5.07 9.96992 5.282C10.0859 5.494 10.1439 5.75 10.1439 6.05V8H9.46592V6.152C9.46592 5.856 9.39192 5.63 9.24392 5.474C9.09592 5.314 8.89392 5.234 8.63792 5.234C8.38192 5.234 8.17792 5.314 8.02592 5.474C7.87792 5.63 7.80392 5.856 7.80392 6.152V8H7.11992V4.694H7.80392V5.072C7.91592 4.936 8.05792 4.83 8.22992 4.754C8.40592 4.678 8.59192 4.64 8.78792 4.64ZM4.964 12.148H3.218L2.918 13H2.204L3.698 8.824H4.49L5.984 13H5.264L4.964 12.148ZM4.772 11.59L4.094 9.652L3.41 11.59H4.772ZM7.31759 10.18C7.43359 10.028 7.59159 9.9 7.79159 9.796C7.99159 9.692 8.21759 9.64 8.46959 9.64C8.75759 9.64 9.01959 9.712 9.25559 9.856C9.49559 9.996 9.68359 10.194 9.81959 10.45C9.95559 10.706 10.0236 11 10.0236 11.332C10.0236 11.664 9.95559 11.962 9.81959 12.226C9.68359 12.486 9.49559 12.69 9.25559 12.838C9.01959 12.982 8.75759 13.054 8.46959 13.054C8.21759 13.054 7.99359 13.004 7.79759 12.904C7.60159 12.8 7.44159 12.672 7.31759 12.52V14.572H6.63359V9.694H7.31759V10.18ZM9.32759 11.332C9.32759 11.104 9.27959 10.908 9.18359 10.744C9.09159 10.576 8.96759 10.45 8.81159 10.366C8.65959 10.278 8.49559 10.234 8.31959 10.234C8.14759 10.234 7.98359 10.278 7.82759 10.366C7.67559 10.454 7.55159 10.582 7.45559 10.75C7.36359 10.918 7.31759 11.116 7.31759 11.344C7.31759 11.572 7.36359 11.772 7.45559 11.944C7.55159 12.112 7.67559 12.24 7.82759 12.328C7.98359 12.416 8.14759 12.46 8.31959 12.46C8.49559 12.46 8.65959 12.416 8.81159 12.328C8.96759 12.236 9.09159 12.104 9.18359 11.932C9.27959 11.76 9.32759 11.56 9.32759 11.332ZM11.384 10.18C11.5 10.028 11.658 9.9 11.858 9.796C12.058 9.692 12.284 9.64 12.536 9.64C12.824 9.64 13.086 9.712 13.322 9.856C13.562 9.996 13.75 10.194 13.886 10.45C14.022 10.706 14.09 11 14.09 11.332C14.09 11.664 14.022 11.962 13.886 12.226C13.75 12.486 13.562 12.69 13.322 12.838C13.086 12.982 12.824 13.054 12.536 13.054C12.284 13.054 12.06 13.004 11.864 12.904C11.668 12.8 11.508 12.672 11.384 12.52V14.572H10.7V9.694H11.384V10.18ZM13.394 11.332C13.394 11.104 13.346 10.908 13.25 10.744C13.158 10.576 13.034 10.45 12.878 10.366C12.726 10.278 12.562 10.234 12.386 10.234C12.214 10.234 12.05 10.278 11.894 10.366C11.742 10.454 11.618 10.582 11.522 10.75C11.43 10.918 11.384 11.116 11.384 11.344C11.384 11.572 11.43 11.772 11.522 11.944C11.618 12.112 11.742 12.24 11.894 12.328C12.05 12.416 12.214 12.46 12.386 12.46C12.562 12.46 12.726 12.416 12.878 12.328C13.034 12.236 13.158 12.104 13.25 11.932C13.346 11.76 13.394 11.56 13.394 11.332Z" fill="white"/>
</svg>
