<svg width="144" height="144" viewBox="0 0 144 144" fill="none" xmlns="http://www.w3.org/2000/svg">
<rect width="144" height="144" rx="18" fill="#4563EE"/>
<path d="M40.136 32.47V37.492H24.206V48.562H36.626V53.584H24.206V70H18.05V32.47H40.136ZM48.973 36.304C47.857 36.304 46.921 35.926 46.165 35.17C45.409 34.414 45.031 33.478 45.031 32.362C45.031 31.246 45.409 30.31 46.165 29.554C46.921 28.798 47.857 28.42 48.973 28.42C50.053 28.42 50.971 28.798 51.727 29.554C52.483 30.31 52.861 31.246 52.861 32.362C52.861 33.478 52.483 34.414 51.727 35.17C50.971 35.926 50.053 36.304 48.973 36.304ZM51.997 40.246V70H45.841V40.246H51.997ZM75.0913 39.76C77.4313 39.76 79.5193 40.246 81.3553 41.218C83.2273 42.19 84.6853 43.63 85.7293 45.538C86.7733 47.446 87.2953 49.75 87.2953 52.45V70H81.1933V53.368C81.1933 50.704 80.5273 48.67 79.1953 47.266C77.8633 45.826 76.0453 45.106 73.7413 45.106C71.4373 45.106 69.6013 45.826 68.2333 47.266C66.9013 48.67 66.2353 50.704 66.2353 53.368V70H60.0793V40.246H66.2353V43.648C67.2433 42.424 68.5213 41.47 70.0693 40.786C71.6533 40.102 73.3273 39.76 75.0913 39.76ZM40.676 111.332H24.962L22.262 119H15.836L29.282 81.416H36.41L49.856 119H43.376L40.676 111.332ZM38.948 106.31L32.846 88.868L26.69 106.31H38.948ZM61.8583 93.62C62.9023 92.252 64.3243 91.1 66.1243 90.164C67.9243 89.228 69.9583 88.76 72.2263 88.76C74.8183 88.76 77.1763 89.408 79.3003 90.704C81.4603 91.964 83.1523 93.746 84.3763 96.05C85.6003 98.354 86.2123 101 86.2123 103.988C86.2123 106.976 85.6003 109.658 84.3763 112.034C83.1523 114.374 81.4603 116.21 79.3003 117.542C77.1763 118.838 74.8183 119.486 72.2263 119.486C69.9583 119.486 67.9423 119.036 66.1783 118.136C64.4143 117.2 62.9743 116.048 61.8583 114.68V133.148H55.7023V89.246H61.8583V93.62ZM79.9483 103.988C79.9483 101.936 79.5163 100.172 78.6523 98.696C77.8243 97.184 76.7083 96.05 75.3043 95.294C73.9363 94.502 72.4603 94.106 70.8763 94.106C69.3283 94.106 67.8523 94.502 66.4483 95.294C65.0803 96.086 63.9643 97.238 63.1003 98.75C62.2723 100.262 61.8583 102.044 61.8583 104.096C61.8583 106.148 62.2723 107.948 63.1003 109.496C63.9643 111.008 65.0803 112.16 66.4483 112.952C67.8523 113.744 69.3283 114.14 70.8763 114.14C72.4603 114.14 73.9363 113.744 75.3043 112.952C76.7083 112.124 77.8243 110.936 78.6523 109.388C79.5163 107.84 79.9483 106.04 79.9483 103.988ZM98.456 93.62C99.5 92.252 100.922 91.1 102.722 90.164C104.522 89.228 106.556 88.76 108.824 88.76C111.416 88.76 113.774 89.408 115.898 90.704C118.058 91.964 119.75 93.746 120.974 96.05C122.198 98.354 122.81 101 122.81 103.988C122.81 106.976 122.198 109.658 120.974 112.034C119.75 114.374 118.058 116.21 115.898 117.542C113.774 118.838 111.416 119.486 108.824 119.486C106.556 119.486 104.54 119.036 102.776 118.136C101.012 117.2 99.572 116.048 98.456 114.68V133.148H92.3V89.246H98.456V93.62ZM116.546 103.988C116.546 101.936 116.114 100.172 115.25 98.696C114.422 97.184 113.306 96.05 111.902 95.294C110.534 94.502 109.058 94.106 107.474 94.106C105.926 94.106 104.45 94.502 103.046 95.294C101.678 96.086 100.562 97.238 99.698 98.75C98.87 100.262 98.456 102.044 98.456 104.096C98.456 106.148 98.87 107.948 99.698 109.496C100.562 111.008 101.678 112.16 103.046 112.952C104.45 113.744 105.926 114.14 107.474 114.14C109.058 114.14 110.534 113.744 111.902 112.952C113.306 112.124 114.422 110.936 115.25 109.388C116.114 107.84 116.546 106.04 116.546 103.988Z" fill="white"/>
</svg>
